
    <svg xmlns="http://www.w3.org/2000/svg" viewBox="0 0 600 340" preserveAspectRatio="none">
      <defs>
        <linearGradient id="g" x1="0" y1="0" x2="1" y2="1">
          <stop offset="0%" stop-color="#201739" />
          <stop offset="100%" stop-color="#171d30" />
        </linearGradient>
      </defs>
      <rect width="600" height="340" fill="url(#g)" />
      <g opacity="0.2">
        <path d="M0 28 H600 M0 56 H600 M0 84 H600 M0 112 H600 M0 140 H600 M0 168 H600 M0 196 H600 M0 224 H600 M0 252 H600 M0 280 H600 M0 308 H600" stroke="#ffffff" stroke-width="1"/>
        <path d="M28 0 V340 M56 0 V340 M84 0 V340 M112 0 V340 M140 0 V340 M168 0 V340 M196 0 V340 M224 0 V340 M252 0 V340 M280 0 V340 M308 0 V340 M336 0 V340 M364 0 V340 M392 0 V340 M420 0 V340 M448 0 V340 M476 0 V340 M504 0 V340 M532 0 V340 M560 0 V340" stroke="#ffffff" stroke-width="1"/>
      </g>
      
      <path d="M42 216 C92 122, 176 124, 242 206 S384 284, 450 178 S534 108, 566 144" fill="none" stroke="#ffd54f" stroke-width="12" stroke-linecap="round" />
      <path d="M84 108 C146 44, 236 76, 308 134 S460 214, 530 142" fill="none" stroke="#8a5cff" stroke-width="10" stroke-linecap="round" />
      <circle cx="174" cy="220" r="24" fill="#ff4fbf" opacity="0.96" />
      <rect x="382" y="174" width="84" height="84" rx="18" fill="#4ea5ff" opacity="0.9" />
      <g></g>
      <rect x="16" y="16" width="220" height="36" rx="18" fill="rgba(12,14,26,0.76)" />
      <text x="32" y="39" fill="#f5f7ff" font-family="Arial, sans-serif" font-size="16" font-weight="700">Color Storm · Round 1</text>
    </svg>